<?xml version="1.0" standalone="no"?><!DOCTYPE svg PUBLIC "-//W3C//DTD SVG 1.1//EN" "http://www.w3.org/Graphics/SVG/1.1/DTD/svg11.dtd"><svg class="icon" width="200px" height="200.00px" viewBox="0 0 1024 1024" version="1.1" xmlns="http://www.w3.org/2000/svg"><path fill="#333333" d="M1023.850597 256.45793c0-70.644967-57.268308-127.913275-127.913275-127.913275l-767.479649 0c-70.644967 0-127.913275 57.268308-127.913275 127.913275l0 511.653099c0 70.644967 57.268308 127.913275 127.913275 127.913275l767.479649 0c70.644967 0 127.913275-57.268308 127.913275-127.913275L1023.850597 256.45793zM959.382307 768.622682c0 35.322483-28.634154 63.956637-63.956637 63.956637l-767.479649 0c-35.322483 0-63.956637-28.634154-63.956637-63.956637l0-511.653099c0-35.322483 28.634154-63.956637 63.956637-63.956637l767.479649 0c35.322483 0 63.956637 28.634154 63.956637 63.956637L959.382307 768.622682zM160.180166 480.561987l352.017332 0 0 63.444984-352.017332 0 0-63.444984ZM160.180166 320.92622l448.208115 0 0 63.444984-448.208115 0 0-63.444984ZM160.180166 640.197754l224.104057 0 0 64.46829-224.104057 0 0-64.46829ZM703.555757 320.92622l160.659073 0 0 191.358259-160.659073 0 0-191.358259Z" /></svg>